<svg width="267" height="95" viewBox="0 0 267 95" fill="none" xmlns="http://www.w3.org/2000/svg">
<g clip-path="url(#clip0_1_13)">
<path d="M25.873 33.0117C25.6296 33.0117 25.028 32.9616 24.0684 32.8613C23.9824 34.8665 23.9395 38.1608 23.9395 42.7441C23.9395 43.5033 23.6745 44.1549 23.1445 44.6992C22.6146 45.2435 21.9414 45.5156 21.125 45.5156C20.3086 45.5156 19.6283 45.2435 19.084 44.6992C18.554 44.1549 18.2891 43.5033 18.2891 42.7441V36.75C18.2891 34.5299 18.4323 31.2428 18.7188 26.8887C18.9909 22.4629 19.1341 19.1615 19.1484 16.9844C19.1628 13.2604 20.2083 11.4772 22.2852 11.6348C22.7721 11.5059 23.4453 11.4128 24.3047 11.3555C25.1641 11.2839 26.2096 11.248 27.4414 11.248C30.2487 11.248 32.8841 12.1576 35.3477 13.9766C38.0833 16.0104 39.4512 18.4883 39.4512 21.4102C39.4512 25.0768 37.9974 27.9915 35.0898 30.1543C32.5117 32.0592 29.4395 33.0117 25.873 33.0117ZM26.9473 16.791C26.4889 16.791 26.0807 16.7982 25.7227 16.8125C25.3789 16.8125 25.0853 16.8268 24.8418 16.8555C24.8418 17.5286 24.8346 18.5384 24.8203 19.8848C24.7917 21.4746 24.6556 23.9525 24.4121 27.3184C25.1426 27.4329 25.6296 27.4902 25.873 27.4902C28.1074 27.4902 29.9622 26.9603 31.4375 25.9004C33.013 24.7689 33.8008 23.2721 33.8008 21.4102C33.8008 20.1927 33.0632 19.1113 31.5879 18.166C30.1699 17.2493 28.623 16.791 26.9473 16.791ZM61.1934 46.418C60.5345 46.418 59.4889 45.7018 58.0566 44.2695C56.7389 44.8997 55.5788 45.3724 54.5762 45.6875C53.5736 46.0169 52.7214 46.1816 52.0195 46.1816C48.5677 46.1816 45.9753 45.2578 44.2422 43.4102C42.5234 41.5625 41.6641 38.7982 41.6641 35.1172C41.6641 31.6654 42.9388 28.7148 45.4883 26.2656C48.0378 23.8021 51.0885 22.5703 54.6406 22.5703C56.0013 22.5703 57.5768 22.957 59.3672 23.7305C61.5299 24.6615 62.6113 25.7428 62.6113 26.9746C62.6113 27.4902 62.4466 27.9414 62.1172 28.3281C61.974 28.901 61.8594 29.6243 61.7734 30.498C61.7018 31.3574 61.666 32.3672 61.666 33.5273C61.666 36.263 61.8594 38.2324 62.2461 39.4355C62.2891 39.5645 62.6185 40.3092 63.2344 41.6699C63.793 42.9017 64.0723 43.6035 64.0723 43.7754C64.0723 44.5345 63.7786 45.1647 63.1914 45.666C62.6185 46.1673 61.9525 46.418 61.1934 46.418ZM55.8652 31.6797C55.8652 31.2214 55.8939 30.6986 55.9512 30.1113C56.0228 29.5098 56.123 28.8438 56.252 28.1133C55.9655 27.9701 55.7077 27.8698 55.4785 27.8125C55.2637 27.7409 55.0775 27.7051 54.9199 27.7051C52.972 27.7051 51.2676 28.4714 49.8066 30.0039C48.3457 31.5221 47.6152 33.2839 47.6152 35.2891C47.6152 37.2083 47.959 38.6549 48.6465 39.6289C49.334 40.5885 50.3652 41.0684 51.7402 41.0684C52.6283 41.0684 53.4661 40.9251 54.2539 40.6387C55.056 40.3379 55.8079 39.901 56.5098 39.3281C56.0801 35.9193 55.8652 33.3698 55.8652 31.6797ZM82.2266 29.2734C80.8086 29.2734 79.9564 28.679 79.6699 27.4902C79.097 27.39 78.5098 27.3398 77.9082 27.3398C74.4564 27.3398 72.7305 27.8125 72.7305 28.7578C72.7305 29.3164 73.7689 30.0684 75.8457 31.0137C78.6816 32.3171 80.6009 33.334 81.6035 34.0645C83.6803 35.5684 84.7188 37.2656 84.7188 39.1562C84.7188 41.6198 83.5729 43.4889 81.2812 44.7637C79.4336 45.7806 77.1634 46.2891 74.4707 46.2891C72.5658 46.2891 70.8255 45.9954 69.25 45.4082C67.1016 44.6061 66.0273 43.4245 66.0273 41.8633C66.0273 40.431 66.8796 39.7148 68.584 39.7148C69.2428 39.7148 70.1953 39.9225 71.4414 40.3379C72.6875 40.7533 73.6471 40.9609 74.3203 40.9609C77.2279 40.9609 78.6888 40.3737 78.7031 39.1992C78.7031 38.4688 77.6934 37.6595 75.6738 36.7715C72.7233 35.4681 70.8327 34.5299 70.002 33.957C67.9824 32.5391 66.9727 30.8132 66.9727 28.7793C66.9727 25.9004 68.498 23.9596 71.5488 22.957C73.3392 22.3698 76.0605 22.0762 79.7129 22.0762C81.1452 22.0762 82.2051 22.2624 82.8926 22.6348C83.8379 23.1361 84.3105 24.0599 84.3105 25.4062C84.3105 27.9844 83.6159 29.2734 82.2266 29.2734ZM103.668 29.2734C102.25 29.2734 101.398 28.679 101.111 27.4902C100.538 27.39 99.9512 27.3398 99.3496 27.3398C95.8978 27.3398 94.1719 27.8125 94.1719 28.7578C94.1719 29.3164 95.2103 30.0684 97.2871 31.0137C100.123 32.3171 102.042 33.334 103.045 34.0645C105.122 35.5684 106.16 37.2656 106.16 39.1562C106.16 41.6198 105.014 43.4889 102.723 44.7637C100.875 45.7806 98.6048 46.2891 95.9121 46.2891C94.0072 46.2891 92.2669 45.9954 90.6914 45.4082C88.543 44.6061 87.4688 43.4245 87.4688 41.8633C87.4688 40.431 88.321 39.7148 90.0254 39.7148C90.6842 39.7148 91.6367 39.9225 92.8828 40.3379C94.1289 40.7533 95.0885 40.9609 95.7617 40.9609C98.6693 40.9609 100.13 40.3737 100.145 39.1992C100.145 38.4688 99.1348 37.6595 97.1152 36.7715C94.1647 35.4681 92.2741 34.5299 91.4434 33.957C89.4238 32.5391 88.4141 30.8132 88.4141 28.7793C88.4141 25.9004 89.9395 23.9596 92.9902 22.957C94.7806 22.3698 97.502 22.0762 101.154 22.0762C102.587 22.0762 103.646 22.2624 104.334 22.6348C105.279 23.1361 105.752 24.0599 105.752 25.4062C105.752 27.9844 105.057 29.2734 103.668 29.2734ZM128.525 46.418C127.867 46.418 126.821 45.7018 125.389 44.2695C124.071 44.8997 122.911 45.3724 121.908 45.6875C120.906 46.0169 120.053 46.1816 119.352 46.1816C115.9 46.1816 113.307 45.2578 111.574 43.4102C109.855 41.5625 108.996 38.7982 108.996 35.1172C108.996 31.6654 110.271 28.7148 112.82 26.2656C115.37 23.8021 118.421 22.5703 121.973 22.5703C123.333 22.5703 124.909 22.957 126.699 23.7305C128.862 24.6615 129.943 25.7428 129.943 26.9746C129.943 27.4902 129.779 27.9414 129.449 28.3281C129.306 28.901 129.191 29.6243 129.105 30.498C129.034 31.3574 128.998 32.3672 128.998 33.5273C128.998 36.263 129.191 38.2324 129.578 39.4355C129.621 39.5645 129.951 40.3092 130.566 41.6699C131.125 42.9017 131.404 43.6035 131.404 43.7754C131.404 44.5345 131.111 45.1647 130.523 45.666C129.951 46.1673 129.285 46.418 128.525 46.418ZM123.197 31.6797C123.197 31.2214 123.226 30.6986 123.283 30.1113C123.355 29.5098 123.455 28.8438 123.584 28.1133C123.298 27.9701 123.04 27.8698 122.811 27.8125C122.596 27.7409 122.41 27.7051 122.252 27.7051C120.304 27.7051 118.6 28.4714 117.139 30.0039C115.678 31.5221 114.947 33.2839 114.947 35.2891C114.947 37.2083 115.291 38.6549 115.979 39.6289C116.666 40.5885 117.697 41.0684 119.072 41.0684C119.96 41.0684 120.798 40.9251 121.586 40.6387C122.388 40.3379 123.14 39.901 123.842 39.3281C123.412 35.9193 123.197 33.3698 123.197 31.6797ZM149.602 27.7051C149.301 27.7051 148.943 27.6979 148.527 27.6836C148.126 27.6549 147.775 27.6406 147.475 27.6406C146.887 27.6406 146.207 27.6979 145.434 27.8125C145.691 33.599 145.82 37.3802 145.82 39.1562C145.82 39.3424 145.827 39.6934 145.842 40.209C145.856 40.7103 145.863 41.1185 145.863 41.4336C145.863 44.7279 144.825 46.375 142.748 46.375C141.96 46.375 141.28 46.1315 140.707 45.6445C140.077 45.1289 139.762 44.4844 139.762 43.7109C139.762 43.1953 139.783 42.4219 139.826 41.3906C139.869 40.3594 139.891 39.5859 139.891 39.0703C139.891 37.3372 139.762 33.6276 139.504 27.9414C138.616 27.8984 137.27 27.7839 135.465 27.5977C133.674 27.3971 132.779 26.4661 132.779 24.8047C132.779 24.0026 133.051 23.3223 133.596 22.7637C134.14 22.2051 134.842 21.9258 135.701 21.9258C136.231 21.9258 137.449 22.0117 139.354 22.1836C139.339 21.7253 139.303 20.9661 139.246 19.9062C139.189 18.9896 139.16 18.2806 139.16 17.7793C139.16 16.9772 139.454 16.3112 140.041 15.7812C140.628 15.2513 141.337 14.9863 142.168 14.9863C144.288 14.9863 145.348 16.7695 145.348 20.3359L145.305 22.0977C146.193 21.9688 146.916 21.9043 147.475 21.9043C149.122 21.9043 150.246 22.0117 150.848 22.2266C151.993 22.6276 152.566 23.5013 152.566 24.8477C152.566 25.6641 152.287 26.3444 151.729 26.8887C151.17 27.4329 150.461 27.7051 149.602 27.7051ZM166.016 45.9883C162.592 45.9883 159.792 45.1719 157.615 43.5391C155.209 41.7344 154.006 39.1921 154.006 35.9121C154.006 32.2884 154.958 29.2233 156.863 26.7168C158.983 23.9382 161.84 22.5488 165.436 22.5488C167.928 22.5488 169.997 22.9499 171.645 23.752C173.807 24.8118 174.889 26.459 174.889 28.6934C174.889 30.2689 174.008 31.6654 172.246 32.8828C171.444 33.4414 169.833 34.2578 167.412 35.332L160.172 38.5332C160.859 39.278 161.69 39.8366 162.664 40.209C163.638 40.5814 164.755 40.7676 166.016 40.7676C167.935 40.7676 169.561 40.3737 170.893 39.5859C172.081 38.8841 173.034 38.5332 173.75 38.5332C175.24 38.5332 175.984 39.2565 175.984 40.7031C175.984 42.3359 174.788 43.668 172.396 44.6992C170.391 45.5586 168.264 45.9883 166.016 45.9883ZM165.436 27.748C164.104 27.748 162.965 28.1921 162.02 29.0801C161.074 29.9681 160.315 31.3001 159.742 33.0762C161.361 32.3743 162.972 31.6797 164.576 30.9922C166.51 30.1185 168.049 29.3092 169.195 28.5645C168.236 28.0202 166.982 27.748 165.436 27.748ZM185.373 25.9863C187.536 23.4798 189.584 22.2266 191.518 22.2266C193.723 22.2266 195.342 23.0645 196.373 24.7402C197.247 23.9668 198.214 23.3867 199.273 23C200.333 22.6133 201.479 22.4199 202.711 22.4199C205.518 22.4199 207.423 23.8164 208.426 26.6094C208.626 27.1823 208.934 29.123 209.35 32.4316C209.751 34.752 210.266 38.6191 210.896 44.0332C210.954 44.8496 210.674 45.5228 210.059 46.0527C209.443 46.5827 208.719 46.8477 207.889 46.8477C206.242 46.8477 205.275 46.0312 204.988 44.3984C204.73 42.9232 204.465 40.8392 204.193 38.1465C203.907 35.196 203.671 33.1048 203.484 31.873C203.098 29.3092 202.604 28.0273 202.002 28.0273C201.673 28.0273 200.921 28.3568 199.746 29.0156C198.572 29.6745 197.712 30.2402 197.168 30.7129C197.168 32.3457 197.361 34.6947 197.748 37.7598C198.149 40.8965 198.35 43.2454 198.35 44.8066C198.35 45.623 198.07 46.3034 197.512 46.8477C196.953 47.3919 196.244 47.6641 195.385 47.6641C194.525 47.6641 193.816 47.3919 193.258 46.8477C192.699 46.3034 192.42 45.623 192.42 44.8066C192.42 43.1738 192.241 40.7747 191.883 37.6094C191.539 34.4297 191.367 32.0234 191.367 30.3906C191.367 29.474 191.288 28.7435 191.131 28.1992C189.469 29.1589 187.801 30.7559 186.125 32.9902C186.053 33.0905 185.932 33.2409 185.76 33.4414C185.702 36.3346 185.674 38.6048 185.674 40.252C185.674 40.653 185.66 41.1973 185.631 41.8848C185.602 42.5579 185.588 43.0592 185.588 43.3887C185.588 44.1621 185.273 44.7708 184.643 45.2148C184.07 45.6302 183.361 45.8379 182.516 45.8379C181.298 45.8379 180.475 45.3079 180.045 44.248C179.744 43.5319 179.594 42.3932 179.594 40.832V32.8398C179.594 32.1237 179.565 31.0781 179.508 29.7031C179.451 28.3138 179.422 27.2611 179.422 26.5449C179.422 25.2702 179.651 24.1172 180.109 23.0859C180.668 21.7969 181.456 21.1523 182.473 21.1523C183.275 21.1523 183.991 21.4674 184.621 22.0977C185.251 22.7135 185.566 23.3939 185.566 24.1387C185.566 23.8379 185.502 24.4538 185.373 25.9863ZM223.938 46.2676C222.706 46.2676 221.41 46.1243 220.049 45.8379L220.027 54.6035C220.027 55.4342 219.748 56.1217 219.189 56.666C218.631 57.2103 217.922 57.4824 217.062 57.4824C216.203 57.4824 215.494 57.2103 214.936 56.666C214.377 56.1217 214.098 55.4342 214.098 54.6035C214.098 53.9303 214.112 51.2591 214.141 46.5898C214.169 43.1237 214.169 40.2949 214.141 38.1035C214.098 35.0098 213.997 32.3457 213.84 30.1113C213.625 27.0319 213.518 25.6211 213.518 25.8789C213.518 24.6901 213.783 23.6732 214.312 22.8281C214.928 21.8685 215.759 21.3887 216.805 21.3887C217.607 21.3887 218.28 21.6608 218.824 22.2051C219.368 22.7493 219.641 23.401 219.641 24.1602L219.619 24.375C220.579 23.8307 221.538 23.4297 222.498 23.1719C223.472 22.8997 224.446 22.7637 225.42 22.7637C228.714 22.7637 231.12 24.1602 232.639 26.9531C233.77 29.0586 234.336 31.7871 234.336 35.1387C234.336 38.2754 233.441 40.875 231.65 42.9375C229.731 45.1576 227.16 46.2676 223.938 46.2676ZM225.42 28.5C224.518 28.5 223.601 28.7148 222.67 29.1445C221.739 29.5599 220.801 30.1901 219.855 31.0352C220.027 33.9857 220.113 36.9434 220.113 39.9082C221.388 40.3236 222.663 40.5312 223.938 40.5312C225.413 40.5312 226.544 40.0085 227.332 38.9629C228.048 38.0176 228.406 36.7428 228.406 35.1387C228.406 33.2051 228.32 31.8659 228.148 31.1211C227.733 29.3737 226.824 28.5 225.42 28.5ZM246.41 46.2676C243.76 46.2676 241.483 45.3581 239.578 43.5391C237.487 41.5482 236.391 38.8913 236.291 35.5684C236.191 32.403 237.057 29.5814 238.891 27.1035C241.068 24.1816 244.097 22.7207 247.979 22.7207C250.843 22.7207 253.12 23.8665 254.811 26.1582C256.329 28.2207 257.088 30.7773 257.088 33.8281C257.088 37.151 256.2 39.987 254.424 42.3359C252.433 44.957 249.762 46.2676 246.41 46.2676ZM247.699 28.3926C245.938 28.3783 244.548 29.1803 243.531 30.7988C242.672 32.1595 242.242 33.7493 242.242 35.5684C242.242 37.2871 242.729 38.6048 243.703 39.5215C244.477 40.252 245.379 40.6172 246.41 40.6172C247.656 40.6172 248.738 40.1947 249.654 39.3496C250.7 38.3613 251.258 37.0221 251.33 35.332C251.516 30.7201 250.306 28.4069 247.699 28.3926Z" fill="white"/>
<path d="M90.9961 63.9766C90.8398 63.9766 90.6758 63.9531 90.5039 63.9062C89.2383 63.5625 88.0078 63.3906 86.8125 63.3906C86.2266 63.3906 85.5977 63.4375 84.9258 63.5312C84.2539 63.625 83.5391 63.7656 82.7812 63.9531C82.7812 64.9922 82.7461 66.5352 82.6758 68.582C83.1133 68.5508 84.6406 68.4062 87.2578 68.1484C88.75 68 89.6953 67.9258 90.0938 67.9258C90.5547 67.9258 90.9492 68.0742 91.2773 68.3711C91.6055 68.6602 91.7695 69.0469 91.7695 69.5312C91.7695 70.4609 91.2734 70.9883 90.2812 71.1133C89.6562 71.1602 88.7227 71.2383 87.4805 71.3477C86.3711 71.4727 84.6992 71.625 82.4648 71.8047C82.4102 72.7969 82.3828 73.5977 82.3828 74.207C82.3828 75.7383 82.4727 76.6094 82.6523 76.8203C82.7383 76.9219 83.2305 76.9727 84.1289 76.9727C84.6133 76.9727 85.3438 76.9609 86.3203 76.9375C87.2969 76.9141 88.0273 76.9023 88.5117 76.9023C88.668 76.9023 88.8984 76.8789 89.2031 76.832C89.5078 76.7852 89.7344 76.7617 89.8828 76.7617C90.3359 76.7617 90.7227 76.8906 91.043 77.1484C91.4102 77.4375 91.5938 77.8438 91.5938 78.3672C91.5938 79.2422 91.1367 79.7656 90.2227 79.9375C89.4414 80.0859 87.8203 80.1602 85.3594 80.1602C82.8125 80.1602 81.1523 79.8164 80.3789 79.1289C79.5273 78.3711 79.1016 76.7305 79.1016 74.207C79.1016 73.1602 79.1758 71.5898 79.3242 69.4961C79.4805 67.3945 79.5586 65.8242 79.5586 64.7852C79.5586 64.5117 79.5195 64.1094 79.4414 63.5781C79.3633 63.0391 79.3242 62.6328 79.3242 62.3594C79.3242 61.1719 79.8711 60.5781 80.9648 60.5781C81.3086 60.5781 81.625 60.6758 81.9141 60.8711C82.8203 60.6445 83.6797 60.4766 84.4922 60.3672C85.3125 60.25 86.0859 60.1914 86.8125 60.1914C88.7812 60.1914 90.3555 60.418 91.5352 60.8711C92.2539 61.1445 92.6133 61.6406 92.6133 62.3594C92.6133 62.7656 92.4727 63.125 92.1914 63.4375C91.8789 63.7969 91.4805 63.9766 90.9961 63.9766ZM102.773 67.2227C102.875 64.5586 102.996 62.7188 103.137 61.7031C103.27 60.7812 103.777 60.3203 104.66 60.3203C105.121 60.3203 105.492 60.4688 105.773 60.7656C106.055 61.0625 106.195 61.4258 106.195 61.8555C106.195 62.9883 106.105 64.6758 105.926 66.918C105.754 69.1602 105.668 70.8477 105.668 71.9805C105.668 74.7461 105.758 76.5977 105.938 77.5352C105.961 77.6602 105.973 77.7734 105.973 77.875C105.973 78.3047 105.816 78.6602 105.504 78.9414C105.191 79.2148 104.828 79.3516 104.414 79.3516C103.836 79.3516 103.406 79.0938 103.125 78.5781C102.594 78.8984 102.043 79.1367 101.473 79.293C100.902 79.457 100.312 79.5391 99.7031 79.5391C97.9531 79.5391 96.5 78.9805 95.3438 77.8633C94.1641 76.7227 93.5742 75.2695 93.5742 73.5039C93.5742 71.4023 94.168 69.707 95.3555 68.418C96.543 67.1211 98.0938 66.4727 100.008 66.4727C100.594 66.4727 101.117 66.5352 101.578 66.6602C102.039 66.7852 102.438 66.9727 102.773 67.2227ZM102.539 70.9141C102.281 70.4219 101.945 70.0547 101.531 69.8125C101.117 69.5703 100.625 69.4492 100.055 69.4492C98.8984 69.4492 98.0312 69.7852 97.4531 70.457C96.875 71.1211 96.5859 72.1211 96.5859 73.457C96.5859 74.3008 96.8984 75.0234 97.5234 75.625C98.1484 76.2266 98.875 76.5273 99.7031 76.5273C100.305 76.5273 100.762 76.457 101.074 76.3164C101.285 76.2227 101.645 75.9727 102.152 75.5664C102.285 75.457 102.414 75.3359 102.539 75.2031C102.523 74.8281 102.523 73.3984 102.539 70.9141ZM118.57 72.2266C118.57 72.75 118.574 73.5391 118.582 74.5938C118.59 75.6484 118.594 76.4375 118.594 76.9609C118.594 77.125 118.605 77.3711 118.629 77.6992C118.66 78.0195 118.676 78.2617 118.676 78.4258C118.676 78.8633 118.516 79.2227 118.195 79.5039C117.883 79.793 117.496 79.9375 117.035 79.9375C116.387 79.9375 115.914 79.6445 115.617 79.0586C114.617 79.4258 113.582 79.6094 112.512 79.6094C111.402 79.6094 110.469 79.375 109.711 78.9062C108.859 78.3672 108.352 77.582 108.188 76.5508C107.883 74.5977 107.73 72.8516 107.73 71.3125C107.73 70.2969 107.848 69.1367 108.082 67.832C108.238 66.9492 108.766 66.5078 109.664 66.5078C110.117 66.5078 110.504 66.6523 110.824 66.9414C111.145 67.2227 111.305 67.582 111.305 68.0195C111.305 68.3633 111.246 68.9023 111.129 69.6367C111.02 70.3711 110.965 70.9297 110.965 71.3125C110.965 72.4141 111 73.3789 111.07 74.207C111.148 75.0273 111.262 75.707 111.41 76.2461C111.605 76.332 111.793 76.3984 111.973 76.4453C112.16 76.4922 112.34 76.5156 112.512 76.5156C113.379 76.5156 114.332 76.3906 115.371 76.1406C115.371 75.5391 115.367 74.8555 115.359 74.0898C115.344 73.1758 115.336 72.5195 115.336 72.1211C115.336 70.5195 115.41 69.1367 115.559 67.9727C115.676 67.043 116.207 66.5781 117.152 66.5781C117.613 66.5781 118.008 66.7227 118.336 67.0117C118.664 67.3008 118.816 67.6641 118.793 68.1016C118.645 71.0781 118.57 72.4531 118.57 72.2266ZM126.188 79.7383C124.469 79.7383 123.027 79.25 121.863 78.2734C120.637 77.2422 120.023 75.8828 120.023 74.1953C120.023 72.6406 120.574 71.0352 121.676 69.3789C122.926 67.4883 124.379 66.543 126.035 66.543C126.848 66.543 127.797 66.7617 128.883 67.1992C130.203 67.7383 130.863 68.3594 130.863 69.0625C130.863 69.4453 130.73 69.7852 130.465 70.082C130.184 70.4023 129.82 70.5625 129.375 70.5625C129.039 70.5625 128.633 70.3828 128.156 70.0234C127.688 69.6562 126.98 69.4727 126.035 69.4727C125.434 69.4727 124.781 70.0625 124.078 71.2422C123.406 72.3828 123.07 73.3672 123.07 74.1953C123.07 75.0156 123.367 75.6602 123.961 76.1289C124.523 76.5742 125.266 76.7969 126.188 76.7969C126.711 76.7969 127.352 76.5977 128.109 76.1992C128.867 75.8008 129.348 75.6016 129.551 75.6016C129.973 75.6016 130.332 75.7539 130.629 76.0586C130.934 76.3633 131.086 76.7109 131.086 77.1016C131.086 77.7109 130.422 78.3203 129.094 78.9297C127.906 79.4688 126.938 79.7383 126.188 79.7383ZM143.238 79.7734C142.879 79.7734 142.309 79.3828 141.527 78.6016C140.809 78.9453 140.176 79.2031 139.629 79.375C139.082 79.5547 138.617 79.6445 138.234 79.6445C136.352 79.6445 134.938 79.1406 133.992 78.1328C133.055 77.125 132.586 75.6172 132.586 73.6094C132.586 71.7266 133.281 70.1172 134.672 68.7812C136.062 67.4375 137.727 66.7656 139.664 66.7656C140.406 66.7656 141.266 66.9766 142.242 67.3984C143.422 67.9062 144.012 68.4961 144.012 69.168C144.012 69.4492 143.922 69.6953 143.742 69.9062C143.664 70.2188 143.602 70.6133 143.555 71.0898C143.516 71.5586 143.496 72.1094 143.496 72.7422C143.496 74.2344 143.602 75.3086 143.812 75.9648C143.836 76.0352 144.016 76.4414 144.352 77.1836C144.656 77.8555 144.809 78.2383 144.809 78.332C144.809 78.7461 144.648 79.0898 144.328 79.3633C144.016 79.6367 143.652 79.7734 143.238 79.7734ZM140.332 71.7344C140.332 71.4844 140.348 71.1992 140.379 70.8789C140.418 70.5508 140.473 70.1875 140.543 69.7891C140.387 69.7109 140.246 69.6562 140.121 69.625C140.004 69.5859 139.902 69.5664 139.816 69.5664C138.754 69.5664 137.824 69.9844 137.027 70.8203C136.23 71.6484 135.832 72.6094 135.832 73.7031C135.832 74.75 136.02 75.5391 136.395 76.0703C136.77 76.5938 137.332 76.8555 138.082 76.8555C138.566 76.8555 139.023 76.7773 139.453 76.6211C139.891 76.457 140.301 76.2188 140.684 75.9062C140.449 74.0469 140.332 72.6562 140.332 71.7344ZM154.734 69.5664C154.57 69.5664 154.375 69.5625 154.148 69.5547C153.93 69.5391 153.738 69.5312 153.574 69.5312C153.254 69.5312 152.883 69.5625 152.461 69.625C152.602 72.7812 152.672 74.8438 152.672 75.8125C152.672 75.9141 152.676 76.1055 152.684 76.3867C152.691 76.6602 152.695 76.8828 152.695 77.0547C152.695 78.8516 152.129 79.75 150.996 79.75C150.566 79.75 150.195 79.6172 149.883 79.3516C149.539 79.0703 149.367 78.7188 149.367 78.2969C149.367 78.0156 149.379 77.5938 149.402 77.0312C149.426 76.4688 149.438 76.0469 149.438 75.7656C149.438 74.8203 149.367 72.7969 149.227 69.6953C148.742 69.6719 148.008 69.6094 147.023 69.5078C146.047 69.3984 145.559 68.8906 145.559 67.9844C145.559 67.5469 145.707 67.1758 146.004 66.8711C146.301 66.5664 146.684 66.4141 147.152 66.4141C147.441 66.4141 148.105 66.4609 149.145 66.5547C149.137 66.3047 149.117 65.8906 149.086 65.3125C149.055 64.8125 149.039 64.4258 149.039 64.1523C149.039 63.7148 149.199 63.3516 149.52 63.0625C149.84 62.7734 150.227 62.6289 150.68 62.6289C151.836 62.6289 152.414 63.6016 152.414 65.5469L152.391 66.5078C152.875 66.4375 153.27 66.4023 153.574 66.4023C154.473 66.4023 155.086 66.4609 155.414 66.5781C156.039 66.7969 156.352 67.2734 156.352 68.0078C156.352 68.4531 156.199 68.8242 155.895 69.1211C155.59 69.418 155.203 69.5664 154.734 69.5664ZM160.453 64.9141C159.953 64.9141 159.52 64.7461 159.152 64.4102C158.785 64.0742 158.602 63.6641 158.602 63.1797C158.602 62.6953 158.785 62.2852 159.152 61.9492C159.52 61.6133 159.953 61.4453 160.453 61.4453C160.953 61.4453 161.383 61.6133 161.742 61.9492C162.109 62.2852 162.293 62.6953 162.293 63.1797C162.293 63.6641 162.109 64.0742 161.742 64.4102C161.383 64.7461 160.953 64.9141 160.453 64.9141ZM161.449 73.5039C161.449 73.9492 161.461 74.6641 161.484 75.6484C161.516 76.6328 161.531 77.3477 161.531 77.793C161.531 78.2461 161.379 78.6211 161.074 78.918C160.77 79.207 160.383 79.3516 159.914 79.3516C159.445 79.3516 159.059 79.207 158.754 78.918C158.449 78.6211 158.297 78.2461 158.297 77.793C158.297 77.3477 158.281 76.6328 158.25 75.6484C158.227 74.6641 158.215 73.9492 158.215 73.5039C158.215 72.8086 158.254 71.9375 158.332 70.8906C158.41 69.8438 158.449 68.9727 158.449 68.2773C158.449 67.8242 158.602 67.4531 158.906 67.1641C159.211 66.8672 159.598 66.7188 160.066 66.7188C160.535 66.7188 160.922 66.8672 161.227 67.1641C161.531 67.4531 161.684 67.8242 161.684 68.2773C161.684 68.9727 161.645 69.8438 161.566 70.8906C161.488 71.9375 161.449 72.8086 161.449 73.5039ZM170.801 78.1328C170.762 78.5234 170.602 78.8438 170.32 79.0938C170.039 79.3438 169.691 79.4688 169.277 79.4688C168.488 79.4688 167.93 79.0625 167.602 78.25C166.758 76.1406 165.465 72.9922 163.723 68.8047C163.621 68.5703 163.57 68.3477 163.57 68.1367C163.57 67.7148 163.738 67.3594 164.074 67.0703C164.418 66.7734 164.809 66.625 165.246 66.625C165.918 66.625 166.398 66.9336 166.688 67.5508C167.133 68.4961 168 70.707 169.289 74.1836C169.703 73.3008 170.273 71.957 171 70.1523C171.219 69.5508 171.559 68.7109 172.02 67.6328C172.34 67.0078 172.824 66.6953 173.473 66.6953C173.91 66.6953 174.297 66.8398 174.633 67.1289C174.977 67.418 175.148 67.7773 175.148 68.207C175.148 68.4883 174.516 70.0352 173.25 72.8477C172.219 75.1445 171.402 76.9062 170.801 78.1328ZM181.008 79.6914C179.562 79.6914 178.32 79.1953 177.281 78.2031C176.141 77.1172 175.543 75.668 175.488 73.8555C175.434 72.1289 175.906 70.5898 176.906 69.2383C178.094 67.6445 179.746 66.8477 181.863 66.8477C183.426 66.8477 184.668 67.4727 185.59 68.7227C186.418 69.8477 186.832 71.2422 186.832 72.9062C186.832 74.7188 186.348 76.2656 185.379 77.5469C184.293 78.9766 182.836 79.6914 181.008 79.6914ZM181.711 69.9414C180.75 69.9336 179.992 70.3711 179.438 71.2539C178.969 71.9961 178.734 72.8633 178.734 73.8555C178.734 74.793 179 75.5117 179.531 76.0117C179.953 76.4102 180.445 76.6094 181.008 76.6094C181.688 76.6094 182.277 76.3789 182.777 75.918C183.348 75.3789 183.652 74.6484 183.691 73.7266C183.793 71.2109 183.133 69.9492 181.711 69.9414Z" fill="white"/>
</g>
<defs>
<clipPath id="clip0_1_13">
<rect width="267" height="95" fill="white"/>
</clipPath>
</defs>
</svg>
