<svg xmlns="http://www.w3.org/2000/svg" xmlns:xlink="http://www.w3.org/1999/xlink" version="1.1" id="Logo" x="0px" y="0px" viewBox="0 0 184 41" style="enable-background:new 0 0 184 41;" xml:space="preserve" width="184"  height="41" >
<path style="fill:#FFFFFF;" d="M26.82,5.196c-3.149-2.676-6.269-4.856-10.321-5.18c-3.08-0.246-4.696,2.306-6.153,4.942  C7.91,9.361,0.094,26.228,1.003,32.269c1.949,12.933,26.218,9.233,35.128,3.343C43.033,31.05,39.331,15.83,26.82,5.196   M34.958,27.513c-0.049,0.543-0.126,1.079-0.231,1.601c-0.796,3.937-4.238,5.946-7.646,6.927c-3.237,0.932-6.528,1.666-9.856,2.123  c-2.756,0.379-5.535,0.292-8.286-0.994c-6.391-2.985-3.777-10.569-2.06-14.731c2.23-5.406,4.046-10.874,6.671-16.408  c0.887-1.869,3.246-3.32,5.486-2.466c2.577,0.983,4.925,2.665,6.833,4.679c2.653,2.802,5.008,5.464,6.73,8.997  C33.992,20.1,35.26,24.19,34.958,27.513 M30.616,21.591c-0.81-2.089-5.077-11.622-9.957-14.418c-3.245-1.86-5.293,2.57-6.104,4.364  c-1.424,3.156-2.718,6.375-4.088,9.559C9.131,24.203,7.906,28.006,8.7,31.546c0.549,2.444,2.892,3.717,5.017,3.876  c3.093,0.233,11.511-1.817,12.96-2.476c3.407-1.547,4.388-3.409,4.922-5.537C32.042,25.647,31.305,23.365,30.616,21.591   M22.748,31.28c-1.845,0.631-6.835,1.766-9.982,0.787c-2.649-0.824-1.327-5.522-0.65-7.494c0.92-2.684,5.14-12.856,5.929-13.611  c1.967-1.883,4.151,1.351,5.546,3.362C33.244,26.942,25.5,30.338,22.748,31.28 M58.183,29.737h-3.244l-1.011-3.106h-0.019  c-0.172,0.621-0.859,0.873-1.832,0.873h-2.825l-0.706,2.232h-3.149l4.485-13.588h3.817L58.183,29.737z M50.168,24.593h3.11  l-1.546-4.95h-0.019L50.168,24.593z M68.673,29.737h-3.054v-5.63c0-0.971-0.573-1.553-1.431-1.553c-1.145,0-1.622,0.873-1.622,2.33  v4.853h-3.053v-9.706h3.053v1.165h0.019c0.649-0.874,1.603-1.359,2.748-1.359c2.194,0,3.34,1.359,3.34,3.863V29.737z M77.737,20.031  h3.053v8.735c0,2.912-2.004,5.047-5.343,5.047c-2.099,0-3.531-0.582-4.58-1.359l1.623-2.038c0.534,0.33,1.431,0.777,2.767,0.777  c1.66,0,2.481-0.991,2.481-2.427v-0.388h-0.019c-0.554,0.873-1.603,1.359-2.939,1.359c-2.863,0-4.58-2.135-4.58-4.95  c0-2.815,1.717-4.95,4.58-4.95c1.336,0,2.385,0.485,2.939,1.359h0.019V20.031z M77.737,24.787c0-1.339-0.916-2.232-2.194-2.232  c-1.279,0-2.195,0.893-2.195,2.232c0,1.34,0.916,2.232,2.195,2.232C76.821,27.019,77.737,26.126,77.737,24.787 M85.838,29.737  h-3.053V16.149h3.053V29.737z M87.364,24.884c0-2.912,2.099-5.047,5.153-5.047c3.053,0,5.153,2.135,5.153,5.047  s-2.099,5.047-5.153,5.047C89.464,29.931,87.364,27.796,87.364,24.884 M94.521,24.884c0-1.339-0.725-2.33-2.004-2.33  c-1.279,0-2.004,0.99-2.004,2.33c0,1.34,0.725,2.329,2.004,2.329C93.796,27.213,94.521,26.224,94.521,24.884 M111.028,29.737h-3.244  l-1.012-3.106h-0.019c-0.172,0.621-0.859,0.873-1.832,0.873h-2.824l-0.706,2.232h-3.149l4.485-13.588h3.816L111.028,29.737z   M103.013,24.593h3.11l-1.546-4.95h-0.019L103.013,24.593z M127.25,23.7v6.037h-3.054v-5.63c0-0.971-0.573-1.553-1.24-1.553  c-1.145,0-1.622,0.873-1.622,2.33v4.853h-3.053v-5.63c0-0.971-0.573-1.553-1.241-1.553c-1.145,0-1.622,0.873-1.622,2.33v4.853  h-3.053v-9.706h3.053v1.165h0.019c0.553-0.874,1.507-1.359,2.652-1.359c1.355,0,2.309,0.563,2.824,1.65h0.038  c0.573-0.873,1.432-1.65,2.958-1.65C126.2,19.837,127.25,21.196,127.25,23.7 M138.758,25.952h-6.698  c0.286,0.932,1.011,1.456,2.061,1.456c0.954,0,1.565-0.447,1.908-0.971l2.29,1.553c-0.859,1.067-2.195,1.941-4.293,1.941  c-3.149,0-5.248-2.135-5.248-5.047s2.099-5.047,5.152-5.047c2.863,0,4.866,1.941,4.866,5.202  C138.796,25.33,138.796,25.641,138.758,25.952 M135.743,24.011c-0.095-0.971-0.573-1.65-1.813-1.65c-0.993,0-1.66,0.602-1.908,1.65  H135.743z M146.239,22.943c-2.576,0-2.863,0.582-2.863,2.329v4.465h-3.053v-9.706h3.053v1.553h0.02  c0.553-1.165,1.316-1.747,2.843-1.747V22.943z M147.193,17.314c0-0.971,0.763-1.747,1.718-1.747c0.954,0,1.718,0.777,1.718,1.747  c0,0.971-0.764,1.747-1.718,1.747C147.957,19.06,147.193,18.284,147.193,17.314 M150.438,29.737h-3.054v-9.706h3.054V29.737z   M159.025,26.049l2.481,1.475c-0.935,1.495-2.481,2.407-4.485,2.407c-2.958,0-5.057-2.135-5.057-5.047s2.099-5.047,5.152-5.047  c1.908,0,3.454,0.912,4.389,2.407l-2.481,1.475c-0.477-0.815-1.107-1.165-1.908-1.165c-1.278,0-2.004,0.99-2.004,2.33  c0,1.34,0.725,2.329,2.004,2.329C157.918,27.213,158.548,26.864,159.025,26.049 M169.808,21.196v-1.165h3.053v9.706h-3.053v-1.165  h-0.019c-0.553,0.873-1.603,1.359-2.939,1.359c-2.863,0-4.58-2.135-4.58-5.047s1.718-5.047,4.58-5.047  c1.336,0,2.386,0.485,2.939,1.359H169.808z M169.808,24.884c0-1.436-0.916-2.33-2.194-2.33c-1.279,0-2.195,0.893-2.195,2.33  c0,1.437,0.916,2.329,2.195,2.329C168.892,27.213,169.808,26.32,169.808,24.884 M183.93,29.737h-3.054v-5.63  c0-0.971-0.572-1.553-1.431-1.553c-1.145,0-1.622,0.873-1.622,2.33v4.853h-3.053v-9.706h3.053v1.165h0.02  c0.648-0.874,1.603-1.359,2.748-1.359c2.195,0,3.34,1.359,3.34,3.863V29.737z"/>
<path style="fill:#FFFFFF;" d="M25.269,22.624c-0.815-1.799-2.194-4.172-3.982-5.8c-0.69-0.626-2.671-1.363-3.276,0.317  c-1.092,2.928-1.946,5.955-2.761,8.883c-0.225,0.808-0.592,2.837,0.255,3.374c1.942,1.233,7.44-2.421,9.14-3.521  C25.615,25.253,25.74,23.664,25.269,22.624 M22.683,24.313c-1.222,1.1-3.25,2.461-4.66,2.404c-1.452-0.058,0.587-6.505,1.769-7.485  c0.955-0.792,3.035,2.85,3.158,3.234C23.151,23.094,23.126,23.913,22.683,24.313"/>
<path style="fill:none;" d="M1.296,41"/>
</svg>